{
  "accessors": [
    {
      "bufferView": 2,
      "componentType": 5126,
      "count": 56327,
      "max": [
        209.43780517578125,
        344.7022399902344,
        128.90341186523438
      ],
      "min": [
        -173.21133422851563,
        -227.32830810546875,
        -5.183949947357178
      ],
      "type": "VEC3"
    },
    {
      "bufferView": 2,
      "byteOffset": 675924,
      "componentType": 5126,
      "count": 56327,
      "max": [
        1.0,
        1.0,
        1.0
      ],
      "min": [
        -1.0,
        -1.0,
        -1.0
      ],
      "type": "VEC3"
    },
    {
      "bufferView": 1,
      "componentType": 5126,
      "count": 56327,
      "max": [
        0.9977099895477295,
        1.0
      ],
      "min": [
        0.01941400021314621,
        -0.9733070135116577
      ],
      "type": "VEC2"
    },
    {
      "bufferView": 0,
      "componentType": 5125,
      "count": 101352,
      "type": "SCALAR"
    },
    {
      "bufferView": 2,
      "byteOffset": 1351848,
      "componentType": 5126,
      "count": 21440,
      "max": [
        -26.124422073364258,
        61.26491928100586,
        5.0628437995910645
      ],
      "min": [
        -84.19881439208984,
        -32.352169036865234,
        -1.2647379636764526
      ],
      "type": "VEC3"
    },
    {
      "bufferView": 2,
      "byteOffset": 1609128,
      "componentType": 5126,
      "count": 21440,
      "max": [
        1.0,
        1.0,
        1.0
      ],
      "min": [
        -1.0,
        -1.0,
        -1.0
      ],
      "type": "VEC3"
    },
    {
      "bufferView": 1,
      "byteOffset": 450616,
      "componentType": 5126,
      "count": 21440,
      "max": [
        0.0,
        0.0
      ],
      "min": [
        0.0,
        0.0
      ],
      "type": "VEC2"
    },
    {
      "bufferView": 0,
      "byteOffset": 405408,
      "componentType": 5125,
      "count": 32400,
      "type": "SCALAR"
    },
    {
      "bufferView": 2,
      "byteOffset": 1866408,
      "componentType": 5126,
      "count": 9987,
      "max": [
        209.43780517578125,
        350.6794738769531,
        119.54764556884766
      ],
      "min": [
        -173.5189208984375,
        -241.5394744873047,
        -4.866714954376221
      ],
      "type": "VEC3"
    },
    {
      "bufferView": 2,
      "byteOffset": 1986252,
      "componentType": 5126,
      "count": 9987,
      "max": [
        1.0,
        1.0,
        1.0
      ],
      "min": [
        -1.0,
        -1.0,
        -1.0
      ],
      "type": "VEC3"
    },
    {
      "bufferView": 1,
      "byteOffset": 622136,
      "componentType": 5126,
      "count": 9987,
      "max": [
        1.921555995941162,
        1.0
      ],
      "min": [
        0.02715199999511242,
        0.0
      ],
      "type": "VEC2"
    },
    {
      "bufferView": 0,
      "byteOffset": 535008,
      "componentType": 5125,
      "count": 26124,
      "type": "SCALAR"
    },
    {
      "bufferView": 2,
      "byteOffset": 2106096,
      "componentType": 5126,
      "count": 5484,
      "max": [
        206.27098083496094,
        350.6794738769531,
        99.47569274902344
      ],
      "min": [
        -173.5189208984375,
        -241.5394744873047,
        -4.344211101531982
      ],
      "type": "VEC3"
    },
    {
      "bufferView": 2,
      "byteOffset": 2171904,
      "componentType": 5126,
      "count": 5484,
      "max": [
        1.0,
        1.0,
        1.0
      ],
      "min": [
        -1.0,
        -1.0,
        -1.0
      ],
      "type": "VEC3"
    },
    {
      "bufferView": 1,
      "byteOffset": 702032,
      "componentType": 5126,
      "count": 5484,
      "max": [
        1.421555995941162,
        1.0
      ],
      "min": [
        0.03883399814367294,
        0.0
      ],
      "type": "VEC2"
    },
    {
      "bufferView": 0,
      "byteOffset": 639504,
      "componentType": 5125,
      "count": 12027,
      "type": "SCALAR"
    }
  ],
  "asset": {
    "extras": {
      "author": "Fernand_Junior (https://sketchfab.com/Fernand_Juniro)",
      "license": "CC-BY-4.0 (http://creativecommons.org/licenses/by/4.0/)",
      "source": "https://sketchfab.com/3d-models/city-cidade-da1728266f3149af9d5ac54316d28c8e",
      "title": "CITY - CIDADE"
    },
    "generator": "Sketchfab-14.81.0",
    "version": "2.0"
  },
  "bufferViews": [
    {
      "buffer": 0,
      "byteLength": 687612,
      "name": "floatBufferViews",
      "target": 34963
    },
    {
      "buffer": 0,
      "byteLength": 745904,
      "byteOffset": 687612,
      "byteStride": 8,
      "name": "floatBufferViews",
      "target": 34962
    },
    {
      "buffer": 0,
      "byteLength": 2237712,
      "byteOffset": 1433516,
      "byteStride": 12,
      "name": "floatBufferViews",
      "target": 34962
    }
  ],
  "buffers": [
    {
      "byteLength": 3671228,
      "uri": "scene.bin"
    }
  ],
  "images": [
    {
      "uri": "textures/lambert28SG_baseColor.jpeg"
    }
  ],
  "materials": [
    {
      "doubleSided": true,
      "name": "lambert28SG",
      "pbrMetallicRoughness": {
        "baseColorTexture": {
          "index": 0
        },
        "metallicFactor": 0.0,
        "roughnessFactor": 0.6
      }
    }
  ],
  "meshes": [
    {
      "name": "Object_0",
      "primitives": [
        {
          "attributes": {
            "NORMAL": 1,
            "POSITION": 0,
            "TEXCOORD_0": 2
          },
          "indices": 3,
          "material": 0,
          "mode": 4
        }
      ]
    },
    {
      "name": "Object_1",
      "primitives": [
        {
          "attributes": {
            "NORMAL": 5,
            "POSITION": 4,
            "TEXCOORD_0": 6
          },
          "indices": 7,
          "material": 0,
          "mode": 4
        }
      ]
    },
    {
      "name": "Object_2",
      "primitives": [
        {
          "attributes": {
            "NORMAL": 9,
            "POSITION": 8,
            "TEXCOORD_0": 10
          },
          "indices": 11,
          "material": 0,
          "mode": 4
        }
      ]
    },
    {
      "name": "Object_3",
      "primitives": [
        {
          "attributes": {
            "NORMAL": 13,
            "POSITION": 12,
            "TEXCOORD_0": 14
          },
          "indices": 15,
          "material": 0,
          "mode": 4
        }
      ]
    }
  ],
  "nodes": [
    {
      "children": [
        1
      ],
      "matrix": [
        1.0,
        0.0,
        0.0,
        0.0,
        0.0,
        2.220446049250313e-16,
        -1.0,
        0.0,
        0.0,
        1.0,
        2.220446049250313e-16,
        0.0,
        0.0,
        0.0,
        0.0,
        1.0
      ],
      "name": "Sketchfab_model"
    },
    {
      "children": [
        2,
        3,
        4,
        5
      ],
      "name": "CITY.obj.cleaner.materialmerger.gles"
    },
    {
      "mesh": 0,
      "name": "Object_2"
    },
    {
      "mesh": 1,
      "name": "Object_3"
    },
    {
      "mesh": 2,
      "name": "Object_4"
    },
    {
      "mesh": 3,
      "name": "Object_5"
    }
  ],
  "samplers": [
    {
      "magFilter": 9729,
      "minFilter": 9987,
      "wrapS": 10497,
      "wrapT": 10497
    }
  ],
  "scene": 0,
  "scenes": [
    {
      "name": "Sketchfab_Scene",
      "nodes": [
        0
      ]
    }
  ],
  "textures": [
    {
      "sampler": 0,
      "source": 0
    }
  ]
}
