{
  "accessors": [
    {
      "bufferView": 2,
      "componentType": 5126,
      "count": 705,
      "max": [
        1.1614162921905518,
        3.042013168334961,
        2.052813768386841
      ],
      "min": [
        -3.771721601486206,
        -1.1557191610336304,
        -1.0285618305206299
      ],
      "type": "VEC3"
    },
    {
      "bufferView": 2,
      "byteOffset": 8460,
      "componentType": 5126,
      "count": 705,
      "max": [
        1.0,
        1.0,
        1.0
      ],
      "min": [
        -1.0,
        -1.0,
        -1.0
      ],
      "type": "VEC3"
    },
    {
      "bufferView": 1,
      "componentType": 5126,
      "count": 705,
      "max": [
        0.875,
        1.0000001192092896
      ],
      "min": [
        0.125,
        0.0
      ],
      "type": "VEC2"
    },
    {
      "bufferView": 0,
      "componentType": 5125,
      "count": 1341,
      "type": "SCALAR"
    },
    {
      "bufferView": 2,
      "byteOffset": 16920,
      "componentType": 5126,
      "count": 171,
      "max": [
        1.338018774986267,
        3.0686862468719482,
        2.2736434936523438
      ],
      "min": [
        -3.967693567276001,
        -1.1557191610336304,
        -0.038021691143512726
      ],
      "type": "VEC3"
    },
    {
      "bufferView": 2,
      "byteOffset": 18972,
      "componentType": 5126,
      "count": 171,
      "max": [
        0.9588148593902588,
        1.0,
        1.0
      ],
      "min": [
        -0.958814799785614,
        -1.0,
        -1.0
      ],
      "type": "VEC3"
    },
    {
      "bufferView": 1,
      "byteOffset": 5640,
      "componentType": 5126,
      "count": 171,
      "max": [
        0.875,
        1.0
      ],
      "min": [
        0.125,
        0.0
      ],
      "type": "VEC2"
    },
    {
      "bufferView": 0,
      "byteOffset": 5364,
      "componentType": 5125,
      "count": 285,
      "type": "SCALAR"
    },
    {
      "bufferView": 2,
      "byteOffset": 21024,
      "componentType": 5126,
      "count": 965,
      "max": [
        0.7720183730125427,
        3.0686862468719482,
        1.9249950647354126
      ],
      "min": [
        -3.934889793395996,
        -1.0591427087783813,
        -1.013756513595581
      ],
      "type": "VEC3"
    },
    {
      "bufferView": 2,
      "byteOffset": 32604,
      "componentType": 5126,
      "count": 965,
      "max": [
        1.0,
        1.0,
        1.0
      ],
      "min": [
        -1.0,
        -1.0,
        -1.0
      ],
      "type": "VEC3"
    },
    {
      "bufferView": 1,
      "byteOffset": 7008,
      "componentType": 5126,
      "count": 965,
      "max": [
        0.875,
        1.0
      ],
      "min": [
        0.125,
        0.0
      ],
      "type": "VEC2"
    },
    {
      "bufferView": 0,
      "byteOffset": 6504,
      "componentType": 5125,
      "count": 1548,
      "type": "SCALAR"
    },
    {
      "bufferView": 2,
      "byteOffset": 44184,
      "componentType": 5126,
      "count": 88,
      "max": [
        0.7002663016319275,
        2.152780294418335,
        1.8921493291854858
      ],
      "min": [
        -2.6602795124053955,
        -1.0250051021575928,
        -0.4135909676551819
      ],
      "type": "VEC3"
    },
    {
      "bufferView": 2,
      "byteOffset": 45240,
      "componentType": 5126,
      "count": 88,
      "max": [
        0.0,
        -1.0,
        6.005151362842298e-07
      ],
      "min": [
        0.0,
        -1.0,
        -8.561722211197775e-07
      ],
      "type": "VEC3"
    },
    {
      "bufferView": 1,
      "byteOffset": 14728,
      "componentType": 5126,
      "count": 88,
      "max": [
        0.6161418557167053,
        0.9907525777816772
      ],
      "min": [
        0.3855302929878235,
        0.7588582038879395
      ],
      "type": "VEC2"
    },
    {
      "bufferView": 0,
      "byteOffset": 12696,
      "componentType": 5125,
      "count": 138,
      "type": "SCALAR"
    },
    {
      "bufferView": 2,
      "byteOffset": 46296,
      "componentType": 5126,
      "count": 108,
      "max": [
        0.7836875915527344,
        2.2196969985961914,
        1.562895655632019
      ],
      "min": [
        -2.731525421142578,
        -1.0990233421325684,
        -0.9232872128486633
      ],
      "type": "VEC3"
    },
    {
      "bufferView": 2,
      "byteOffset": 47592,
      "componentType": 5126,
      "count": 108,
      "max": [
        0.9998065829277039,
        0.0,
        0.9999990463256836
      ],
      "min": [
        -0.999418318271637,
        -1.0,
        -0.9999961256980896
      ],
      "type": "VEC3"
    },
    {
      "bufferView": 1,
      "byteOffset": 15432,
      "componentType": 5126,
      "count": 108,
      "max": [
        0.875,
        1.0
      ],
      "min": [
        0.125,
        0.0
      ],
      "type": "VEC2"
    },
    {
      "bufferView": 0,
      "byteOffset": 13248,
      "componentType": 5125,
      "count": 168,
      "type": "SCALAR"
    },
    {
      "bufferView": 2,
      "byteOffset": 48888,
      "componentType": 5126,
      "count": 10,
      "max": [
        -1.2701129913330078,
        0.9427657127380371,
        0.07967942953109741
      ],
      "min": [
        -1.9940297603607178,
        0.9427657127380371,
        -0.9232872128486633
      ],
      "type": "VEC3"
    },
    {
      "bufferView": 2,
      "byteOffset": 49008,
      "componentType": 5126,
      "count": 10,
      "max": [
        0.0,
        -1.0,
        0.0
      ],
      "min": [
        0.0,
        -1.0,
        -7.610887564624136e-08
      ],
      "type": "VEC3"
    },
    {
      "bufferView": 1,
      "byteOffset": 16296,
      "componentType": 5126,
      "count": 10,
      "max": [
        0.625,
        1.0
      ],
      "min": [
        0.3749999701976776,
        0.75
      ],
      "type": "VEC2"
    },
    {
      "bufferView": 0,
      "byteOffset": 13920,
      "componentType": 5125,
      "count": 18,
      "type": "SCALAR"
    },
    {
      "bufferView": 2,
      "byteOffset": 49128,
      "componentType": 5126,
      "count": 30,
      "max": [
        -1.347252607345581,
        2.855607509613037,
        2.2736434936523438
      ],
      "min": [
        -2.436136245727539,
        2.1669135093688965,
        1.0674655437469482
      ],
      "type": "VEC3"
    },
    {
      "bufferView": 2,
      "byteOffset": 49488,
      "componentType": 5126,
      "count": 30,
      "max": [
        0.9991775155067444,
        1.0,
        1.2903613821890758e-07
      ],
      "min": [
        -0.996695339679718,
        -1.0,
        -0.7299965620040894
      ],
      "type": "VEC3"
    },
    {
      "bufferView": 1,
      "byteOffset": 16376,
      "componentType": 5126,
      "count": 30,
      "max": [
        0.625,
        1.0
      ],
      "min": [
        0.375,
        0.0
      ],
      "type": "VEC2"
    },
    {
      "bufferView": 0,
      "byteOffset": 13992,
      "componentType": 5125,
      "count": 48,
      "type": "SCALAR"
    }
  ],
  "asset": {
    "extras": {
      "author": "parisazarei (https://sketchfab.com/parisazarei7)",
      "license": "CC-BY-4.0 (http://creativecommons.org/licenses/by/4.0/)",
      "source": "https://sketchfab.com/3d-models/low-poly-house--game-asset-6a2e7c5af71f4215926f45a8994d2a1d",
      "title": "Low poly House_ Game Asset"
    },
    "generator": "Sketchfab-15.38.0",
    "version": "2.0"
  },
  "bufferViews": [
    {
      "buffer": 0,
      "byteLength": 14184,
      "name": "floatBufferViews",
      "target": 34963
    },
    {
      "buffer": 0,
      "byteLength": 16616,
      "byteOffset": 14184,
      "byteStride": 8,
      "name": "floatBufferViews",
      "target": 34962
    },
    {
      "buffer": 0,
      "byteLength": 49848,
      "byteOffset": 30800,
      "byteStride": 12,
      "name": "floatBufferViews",
      "target": 34962
    }
  ],
  "buffers": [
    {
      "byteLength": 80648,
      "uri": "scene.bin"
    }
  ],
  "materials": [
    {
      "doubleSided": true,
      "name": "Material.002",
      "pbrMetallicRoughness": {
        "baseColorFactor": [
          0.40724,
          0.371238,
          0.287441,
          1.0
        ],
        "metallicFactor": 0.0,
        "roughnessFactor": 0.9166300207436259
      }
    },
    {
      "doubleSided": true,
      "name": "House_07",
      "pbrMetallicRoughness": {
        "baseColorFactor": [
          0.520996,
          0.03741,
          0.0091665,
          1.0
        ],
        "metallicFactor": 0.0,
        "roughnessFactor": 0.9691017437102909
      }
    },
    {
      "doubleSided": true,
      "name": "Hom2_white",
      "pbrMetallicRoughness": {
        "baseColorFactor": [
          0.776599,
          0.656451,
          0.526125,
          1.0
        ],
        "metallicFactor": 0.0,
        "roughnessFactor": 0.8496054381244625
      }
    },
    {
      "doubleSided": true,
      "name": "Material.003",
      "pbrMetallicRoughness": {
        "baseColorFactor": [
          0.127438,
          0.212231,
          0.171441,
          1.0
        ],
        "metallicFactor": 0.0,
        "roughnessFactor": 0.9572331941326193
      }
    },
    {
      "doubleSided": true,
      "name": "Inner_Door",
      "pbrMetallicRoughness": {
        "baseColorFactor": [
          0.0167242,
          0.0146752,
          0.0127957,
          1.0
        ],
        "metallicFactor": 0.0,
        "roughnessFactor": 0.9966514619298953
      }
    },
    {
      "doubleSided": true,
      "name": "DarkGray_House_04",
      "pbrMetallicRoughness": {
        "baseColorFactor": [
          0.165786,
          0.155003,
          0.14668,
          1.0
        ],
        "metallicFactor": 0.0,
        "roughnessFactor": 0.9649620345229386
      }
    },
    {
      "doubleSided": true,
      "name": "Khakestari_house04",
      "pbrMetallicRoughness": {
        "baseColorFactor": [
          0.401978,
          0.361307,
          0.318547,
          1.0
        ],
        "metallicFactor": 0.0,
        "roughnessFactor": 0.9179661829846953
      }
    }
  ],
  "meshes": [
    {
      "name": "Cube.077_Material.002_0",
      "primitives": [
        {
          "attributes": {
            "NORMAL": 1,
            "POSITION": 0,
            "TEXCOORD_0": 2
          },
          "indices": 3,
          "material": 0,
          "mode": 4
        }
      ]
    },
    {
      "name": "Cube.077_House_07_0",
      "primitives": [
        {
          "attributes": {
            "NORMAL": 5,
            "POSITION": 4,
            "TEXCOORD_0": 6
          },
          "indices": 7,
          "material": 1,
          "mode": 4
        }
      ]
    },
    {
      "name": "Cube.077_Hom2_white_0",
      "primitives": [
        {
          "attributes": {
            "NORMAL": 9,
            "POSITION": 8,
            "TEXCOORD_0": 10
          },
          "indices": 11,
          "material": 2,
          "mode": 4
        }
      ]
    },
    {
      "name": "Cube.077_Material.003_0",
      "primitives": [
        {
          "attributes": {
            "NORMAL": 13,
            "POSITION": 12,
            "TEXCOORD_0": 14
          },
          "indices": 15,
          "material": 3,
          "mode": 4
        }
      ]
    },
    {
      "name": "Cube.077_Inner_Door_0",
      "primitives": [
        {
          "attributes": {
            "NORMAL": 17,
            "POSITION": 16,
            "TEXCOORD_0": 18
          },
          "indices": 19,
          "material": 4,
          "mode": 4
        }
      ]
    },
    {
      "name": "Cube.077_DarkGray_House_04_0",
      "primitives": [
        {
          "attributes": {
            "NORMAL": 21,
            "POSITION": 20,
            "TEXCOORD_0": 22
          },
          "indices": 23,
          "material": 5,
          "mode": 4
        }
      ]
    },
    {
      "name": "Cube.077_Khakestari_house04_0",
      "primitives": [
        {
          "attributes": {
            "NORMAL": 25,
            "POSITION": 24,
            "TEXCOORD_0": 26
          },
          "indices": 27,
          "material": 6,
          "mode": 4
        }
      ]
    }
  ],
  "nodes": [
    {
      "children": [
        1
      ],
      "matrix": [
        1.0,
        0.0,
        0.0,
        0.0,
        0.0,
        2.220446049250313e-16,
        -1.0,
        0.0,
        0.0,
        1.0,
        2.220446049250313e-16,
        0.0,
        0.0,
        0.0,
        0.0,
        1.0
      ],
      "name": "Sketchfab_model"
    },
    {
      "children": [
        2
      ],
      "matrix": [
        0.009999999776482582,
        0.0,
        0.0,
        0.0,
        0.0,
        0.0,
        0.009999999776482582,
        0.0,
        0.0,
        -0.009999999776482582,
        0.0,
        0.0,
        0.0,
        0.0,
        0.0,
        1.0
      ],
      "name": "f12a5c5267d24caa9594aab8af945af3.fbx"
    },
    {
      "children": [
        3
      ],
      "name": "RootNode"
    },
    {
      "children": [
        4,
        5,
        6,
        7,
        8,
        9,
        10
      ],
      "matrix": [
        100.0,
        0.0,
        0.0,
        0.0,
        0.0,
        -1.629206793918314e-05,
        -99.99999999999868,
        0.0,
        0.0,
        99.99999999999868,
        -1.629206793918314e-05,
        0.0,
        159.87454223632813,
        103.17027282714844,
        1.3861837942386046e-05,
        1.0
      ],
      "name": "Cube.077"
    },
    {
      "mesh": 0,
      "name": "Cube.077_Material.002_0"
    },
    {
      "mesh": 1,
      "name": "Cube.077_House_07_0"
    },
    {
      "mesh": 2,
      "name": "Cube.077_Hom2_white_0"
    },
    {
      "mesh": 3,
      "name": "Cube.077_Material.003_0"
    },
    {
      "mesh": 4,
      "name": "Cube.077_Inner_Door_0"
    },
    {
      "mesh": 5,
      "name": "Cube.077_DarkGray_House_04_0"
    },
    {
      "mesh": 6,
      "name": "Cube.077_Khakestari_house04_0"
    }
  ],
  "scene": 0,
  "scenes": [
    {
      "name": "Sketchfab_Scene",
      "nodes": [
        0
      ]
    }
  ]
}
